HIERARCHY
ROOT Hips
{
	OFFSET 0.000000 0.000000 0.000000
	CHANNELS 6 Xposition Yposition Zposition Zrotation Yrotation Xrotation 
	JOINT LowerBack
	{
		OFFSET 0.000000 0.000000 0.000000
		CHANNELS 3 Zrotation Yrotation Xrotation
		JOINT Spine
		{
			OFFSET 0.028270 2.035590 -0.193380
			CHANNELS 3 Zrotation Yrotation Xrotation
			JOINT Spine1
			{
				OFFSET 0.056720 2.048850 -0.042750
				CHANNELS 3 Zrotation Yrotation Xrotation
				JOINT Neck
				{
					OFFSET 0.000000 0.000000 0.000000
					CHANNELS 3 Zrotation Yrotation Xrotation
					JOINT Neck1
					{
						OFFSET -0.054170 1.746240 0.172020
						CHANNELS 3 Zrotation Yrotation Xrotation
						JOINT Head
						{
							OFFSET 0.104070 1.761360 -0.123970
							CHANNELS 3 Zrotation Yrotation Xrotation
							End Site
							{
								OFFSET 0.000000 0.000000 0.000000
							}
						}
					}
				}
				JOINT LeftShoulder
				{
					OFFSET 0.000000 0.000000 0.000000
					CHANNELS 3 Zrotation Yrotation Xrotation
					JOINT LeftArm
					{
						OFFSET 3.362410 1.200890 -0.311210
						CHANNELS 3 Zrotation Yrotation Xrotation
						JOINT LeftForeArm
						{
							OFFSET 4.983000 -0.000000 -0.000000
							CHANNELS 3 Zrotation Yrotation Xrotation
							JOINT LeftHand
							{
								OFFSET 3.483560 -0.000000 -0.000000
								CHANNELS 3 Zrotation Yrotation Xrotation
								JOINT LeftFingerBase
								{
									OFFSET 0.000000 0.000000 0.000000
									CHANNELS 3 Zrotation Yrotation Xrotation
									JOINT LeftHandIndex1
									{
										OFFSET 0.715260 -0.000000 -0.000000
										CHANNELS 3 Zrotation Yrotation Xrotation
										End Site
										{
											OFFSET 0.000000 0.000000 0.000000
										}
									}
								}
								JOINT LThumb
								{
									OFFSET 0.000000 0.000000 0.000000
									CHANNELS 3 Zrotation Yrotation Xrotation
									End Site
									{
										OFFSET 0.000000 0.000000 0.000000
									}
								}
							}
						}
					}
				}
				JOINT RightShoulder
				{
					OFFSET 0.000000 0.000000 0.000000
					CHANNELS 3 Zrotation Yrotation Xrotation
					JOINT RightArm
					{
						OFFSET -3.136600 1.374050 -0.404650
						CHANNELS 3 Zrotation Yrotation Xrotation
						JOINT RightForeArm
						{
							OFFSET -5.241900 -0.000000 -0.000000
							CHANNELS 3 Zrotation Yrotation Xrotation
							JOINT RightHand
							{
								OFFSET -3.444170 -0.000000 -0.000000
								CHANNELS 3 Zrotation Yrotation Xrotation
								JOINT RightFingerBase
								{
									OFFSET 0.000000 0.000000 0.000000
									CHANNELS 3 Zrotation Yrotation Xrotation
									JOINT RightHandIndex1
									{
										OFFSET -0.622530 -0.000000 -0.000000
										CHANNELS 3 Zrotation Yrotation Xrotation
										End Site
										{
											OFFSET 0.000000 0.000000 0.000000
										}
									}
								}
								JOINT RThumb
								{
									OFFSET 0.000000 0.000000 0.000000
									CHANNELS 3 Zrotation Yrotation Xrotation
									End Site
									{
										OFFSET 0.000000 0.000000 0.000000
									}
								}
							}
						}
					}
				}
			}
		}
	}
}
}
MOTION
Frames: 12
Frame Time: 0.008333
-20.472379 15.937412 -2.766085 178.683289 83.343839 -177.338198 6.421470 -7.378329 -5.595124 1.303000 -7.982388 -3.322814 -5.330166 -7.872254 3.237567 10.397200 -23.467866 -12.525887 -2.163345 -0.092579 -1.222107 0.000000 0.000000 0.000000 3.716011 6.592260 1.913552 -24.610294 -18.746061 10.351614 -1.417940 -50.175777 -0.001718 1.063722 -0.251576 -0.003834 -0.099175 0.252334 0.000000 0.000000 0.000000 0.000000 0.000000 0.000000 0.000000 16.857323 -24.426995 0.966725 84.194513 -29.999383 -13.113215 4.969927 15.631908 0.001108 10.584873 5.017286 0.461147 0.051308 0.018999 0.000000 0.000000 0.000000 0.000000 0.000000 0.000000 0.000000 
-20.246322 15.946564 -2.729401 178.625929 83.112865 -177.502664 6.490437 -7.432387 -5.709333 1.328596 -8.043519 -3.348730 -5.307753 -7.931865 3.229550 10.402585 -23.508834 -12.534539 -2.157112 -0.092099 -1.222682 0.000000 0.000000 0.000000 3.733945 6.585889 1.941322 -23.992480 -17.969256 10.310087 -1.405900 -49.848419 -0.004135 1.707530 -0.430375 -0.009519 -0.107751 0.251846 0.000000 0.000000 0.000000 0.000000 0.000000 0.000000 0.000000 16.889117 -24.483369 0.922761 83.782635 -30.121105 -13.365469 4.975299 15.469928 0.001379 10.337420 4.996526 0.448254 0.053466 0.018945 0.000000 0.000000 0.000000 0.000000 0.000000 0.000000 0.000000 
-20.016375 15.957202 -2.690187 178.487269 82.859341 -177.771877 6.527541 -7.476960 -5.807318 1.345140 -8.092841 -3.370386 -5.288684 -7.979942 3.220685 10.404813 -23.530331 -12.538159 -2.156074 -0.092170 -1.222104 0.000000 0.000000 0.000000 3.735480 6.596514 1.971647 -23.489407 -17.176330 10.319703 -1.403369 -49.456293 -0.006244 2.300474 -0.586520 -0.016302 -0.116086 0.249717 0.000000 0.000000 0.000000 0.000000 0.000000 0.000000 0.000000 16.937027 -24.511043 0.876747 83.348298 -30.165415 -13.682686 4.975109 15.302627 0.001373 10.060416 4.772921 0.416456 0.055560 0.019325 0.000000 0.000000 0.000000 0.000000 0.000000 0.000000 0.000000 
-19.783818 15.969042 -2.648655 178.287582 82.587847 -178.126164 6.533343 -7.510423 -5.882235 1.352461 -8.128721 -3.385943 -5.272604 -8.015016 3.213016 10.404670 -23.540408 -12.540542 -2.158499 -0.092564 -1.221499 0.000000 0.000000 0.000000 3.723745 6.630911 2.004505 -23.101454 -16.384070 10.377782 -1.410810 -48.997386 -0.007912 2.817267 -0.717721 -0.023386 -0.123874 0.245933 0.000000 0.000000 0.000000 0.000000 0.000000 0.000000 0.000000 16.997901 -24.518320 0.830590 82.896243 -30.117477 -14.010426 4.969587 15.126131 0.001059 9.765592 4.352935 0.368254 0.057521 0.020206 0.000000 0.000000 0.000000 0.000000 0.000000 0.000000 0.000000 
-19.549503 15.981761 -2.605059 178.050560 82.307900 -178.541066 6.510527 -7.530353 -5.928418 1.350324 -8.148967 -3.394272 -5.261220 -8.034939 3.206625 10.404530 -23.538695 -12.543628 -2.164712 -0.093274 -1.221453 0.000000 0.000000 0.000000 3.703113 6.688663 2.039967 -22.827141 -15.593238 10.480542 -1.428731 -48.478691 -0.009036 3.235635 -0.822607 -0.029870 -0.130889 0.240465 0.000000 0.000000 0.000000 0.000000 0.000000 0.000000 0.000000 17.075451 -24.503596 0.786232 82.433949 -29.971230 -14.325879 4.959868 14.948450 0.000391 9.477937 3.730858 0.305748 0.059240 0.021675 0.000000 0.000000 0.000000 0.000000 0.000000 0.000000 0.000000 
-19.314654 15.995049 -2.559712 177.806336 82.033610 -178.984257 6.464565 -7.533418 -5.942150 1.338814 -8.150704 -3.395296 -5.257236 -8.036806 3.199458 10.405992 -23.519262 -12.546712 -2.176060 -0.094442 -1.221782 0.000000 0.000000 0.000000 3.679840 6.755082 2.077788 -22.666888 -14.777575 10.618079 -1.457485 -47.919562 -0.009549 3.535869 -0.899838 -0.034955 -0.136946 0.233250 0.000000 0.000000 0.000000 0.000000 0.000000 0.000000 0.000000 17.172782 -24.458644 0.746725 81.971477 -29.726552 -14.627836 4.948242 14.779854 -0.000681 9.232739 2.897791 0.230636 0.060615 0.023835 0.000000 0.000000 0.000000 0.000000 0.000000 0.000000 0.000000 
-19.080432 16.008552 -2.512991 177.571240 81.780894 -179.435308 6.401442 -7.516185 -5.920469 1.318660 -8.130963 -3.388302 -5.261756 -8.017659 3.192567 10.410150 -23.483834 -12.551739 -2.191536 -0.095947 -1.223063 0.000000 0.000000 0.000000 3.652089 6.834286 2.117751 -22.612189 -13.940533 10.788570 -1.497513 -47.323508 -0.009426 3.705725 -0.951676 -0.038141 -0.141990 0.224322 0.000000 0.000000 0.000000 0.000000 0.000000 0.000000 0.000000 17.286202 -24.383888 0.714323 81.512213 -29.371280 -14.887687 4.937362 14.617578 -0.002189 9.062518 1.855451 0.144018 0.061579 0.026806 0.000000 0.000000 0.000000 0.000000 0.000000 0.000000 0.000000 
-18.847826 16.021982 -2.465304 177.350067 81.566103 -179.885518 6.326635 -7.475655 -5.860971 1.290510 -8.087078 -3.372661 -5.275947 -7.974856 3.186648 10.417742 -23.432095 -12.559470 -2.210259 -0.097694 -1.225562 0.000000 0.000000 0.000000 3.614803 6.935278 2.159941 -22.649101 -13.091754 10.993250 -1.549198 -46.690749 -0.008707 3.742524 -0.981650 -0.039228 -0.146096 0.213756 0.000000 0.000000 0.000000 0.000000 0.000000 0.000000 0.000000 17.411178 -24.278173 0.689181 81.051535 -28.894797 -15.097407 4.922635 14.457464 -0.003988 8.893612 0.654619 0.048197 0.062488 0.030371 0.000000 0.000000 0.000000 0.000000 0.000000 0.000000 0.000000 
-18.617883 16.034993 -2.417026 177.140968 81.403151 179.666920 6.244590 -7.409876 -5.762696 1.254604 -8.017320 -3.348829 -5.303118 -7.906297 3.178375 10.428912 -23.358390 -12.564810 -2.231821 -0.099727 -1.227895 0.000000 0.000000 0.000000 3.568004 7.055146 2.205743 -22.768473 -12.222358 11.230152 -1.613319 -46.027103 -0.007474 3.649114 -0.992692 -0.038214 -0.149420 0.201612 0.000000 0.000000 0.000000 0.000000 0.000000 0.000000 0.000000 17.533761 -24.132785 0.664596 80.591133 -28.287756 -15.251885 4.900570 14.325889 -0.005356 8.670647 -0.334938 -0.027718 0.063565 0.032830 0.000000 0.000000 0.000000 0.000000 0.000000 0.000000 0.000000 
-18.390971 16.047289 -2.368434 176.929215 81.301928 179.209853 6.157586 -7.318821 -5.624354 1.210513 -7.921657 -3.317683 -5.349711 -7.811008 3.160077 10.445460 -23.259945 -12.556095 -2.255627 -0.102174 -1.226890 0.000000 0.000000 0.000000 3.515395 7.194993 2.260018 -22.959036 -11.330288 11.501018 -1.691731 -45.332206 -0.005845 3.436164 -0.988283 -0.035400 -0.152289 0.188015 0.000000 0.000000 0.000000 0.000000 0.000000 0.000000 0.000000 17.628699 -23.939186 0.616650 80.123625 -27.525507 -15.335146 4.861822 14.294818 -0.004319 8.279190 -0.099684 -0.009292 0.064996 0.029305 0.000000 0.000000 0.000000 0.000000 0.000000 0.000000 0.000000 
-18.167949 16.058589 -2.319792 176.700841 81.266129 178.730440 6.065294 -7.201890 -5.445662 1.160523 -7.799076 -3.277903 -5.401113 -7.689902 3.143942 10.457458 -23.134586 -12.548958 -2.281568 -0.104782 -1.226789 0.000000 0.000000 0.000000 3.434904 7.357383 2.311508 -23.210046 -10.425947 11.800470 -1.780848 -44.600724 -0.003988 3.121746 -0.970845 -0.031291 -0.154628 0.173045 0.000000 0.000000 0.000000 0.000000 0.000000 0.000000 0.000000 17.727847 -23.707814 0.588121 79.662281 -26.650817 -15.377711 4.821212 14.223148 -0.004415 7.908760 -0.460440 -0.033485 0.066380 0.028421 0.000000 0.000000 0.000000 0.000000 0.000000 0.000000 0.000000 
-17.949144 16.068715 -2.271287 176.436182 81.294685 178.210028 5.967184 -7.061318 -5.226548 1.104069 -7.651576 -3.229927 -5.462894 -7.544013 3.125152 10.468203 -22.982297 -12.535011 -2.309064 -0.107621 -1.225336 0.000000 0.000000 0.000000 3.326654 7.557259 2.363871 -23.505919 -9.537259 12.138929 -1.881957 -43.817211 -0.002072 2.731929 -0.942166 -0.026286 -0.156866 0.156910 0.000000 0.000000 0.000000 0.000000 0.000000 0.000000 0.000000 17.812311 -23.434475 0.555853 79.198353 -25.644373 -15.369226 4.770933 14.180532 -0.003895 7.456282 -0.511016 -0.034668 0.068001 0.025842 0.000000 0.000000 0.000000 0.000000 0.000000 0.000000 0.000000 
